<?xml version="1.0" encoding="UTF-8" standalone="no"?>
<!DOCTYPE svg PUBLIC "-//W3C//DTD SVG 1.1//EN"
 "http://www.w3.org/Graphics/SVG/1.1/DTD/svg11.dtd">
<!-- Generated by graphviz version 2.40.1 (20161225.0304)
 -->
<!-- Title: G Pages: 1 -->
<svg width="298pt" height="310pt"
 viewBox="0.00 0.00 297.82 310.40" xmlns="http://www.w3.org/2000/svg" xmlns:xlink="http://www.w3.org/1999/xlink">
<g id="graph0" class="graph" transform="scale(1 1) rotate(0) translate(4 306.4)">
<title>G</title>
<polygon fill="#ffffff" stroke="transparent" points="-4,4 -4,-306.4 293.8165,-306.4 293.8165,4 -4,4"/>
<!-- focused -->
<g id="node1" class="node">
<title>focused</title>
<ellipse fill="none" stroke="#0000ff" cx="105.4967" cy="-284.4" rx="41.1316" ry="18"/>
<text text-anchor="middle" x="105.4967" y="-280.2" font-family="Times,serif" font-size="14.00" fill="#000000">focused</text>
</g>
<!-- error -->
<g id="node2" class="node">
<title>error</title>
<ellipse fill="none" stroke="#ff0000" cx="44.4967" cy="-195.6" rx="29.5936" ry="18"/>
<text text-anchor="middle" x="44.4967" y="-191.4" font-family="Times,serif" font-size="14.00" fill="#000000">error</text>
</g>
<!-- focused&#45;&gt;error -->
<g id="edge4" class="edge">
<title>focused&#45;&gt;error</title>
<path fill="none" stroke="#000000" d="M68.6933,-276.174C42.7016,-269.5325 11.1534,-259.4925 3.3003,-248.4 -4.7783,-236.9891 3.8223,-224.6482 15.2152,-214.7688"/>
<polygon fill="#000000" stroke="#000000" points="17.6712,-217.2906 23.3781,-208.3641 13.3501,-211.7834 17.6712,-217.2906"/>
<text text-anchor="middle" x="17.0949" y="-235.8" font-family="Times,serif" font-size="14.00" fill="#000000">error</text>
</g>
<!-- valid -->
<g id="node3" class="node">
<title>valid</title>
<ellipse fill="none" stroke="#00ff00" cx="139.4967" cy="-195.6" rx="30.1958" ry="18"/>
<text text-anchor="middle" x="139.4967" y="-191.4" font-family="Times,serif" font-size="14.00" fill="#000000">valid</text>
</g>
<!-- focused&#45;&gt;valid -->
<g id="edge5" class="edge">
<title>focused&#45;&gt;valid</title>
<path fill="none" stroke="#000000" d="M102.9623,-266.1711C102.2412,-255.6948 102.6122,-242.4948 106.9807,-231.6 108.9289,-226.7412 111.848,-222.1196 115.1515,-217.9065"/>
<polygon fill="#000000" stroke="#000000" points="117.8267,-220.1647 121.8241,-210.3528 112.5805,-215.5303 117.8267,-220.1647"/>
<text text-anchor="middle" x="138.2547" y="-235.8" font-family="Times,serif" font-size="14.00" fill="#000000">error=false</text>
</g>
<!-- error&#45;&gt;focused -->
<g id="edge6" class="edge">
<title>error&#45;&gt;focused</title>
<path fill="none" stroke="#000000" d="M51.0434,-213.5651C55.3572,-224.1972 61.6032,-237.6449 69.1769,-248.4 72.2296,-252.735 75.8344,-257.0065 79.5678,-261.0082"/>
<polygon fill="#000000" stroke="#000000" points="77.2743,-263.6667 86.794,-268.3171 82.2521,-258.7451 77.2743,-263.6667"/>
<text text-anchor="middle" x="84.6566" y="-235.8" font-family="Times,serif" font-size="14.00" fill="#000000">focus</text>
</g>
<!-- disabled -->
<g id="node5" class="node">
<title>disabled</title>
<ellipse fill="none" stroke="#c0c0c0" cx="132.4967" cy="-106.8" rx="43.4377" ry="18"/>
<text text-anchor="middle" x="132.4967" y="-102.6" font-family="Times,serif" font-size="14.00" fill="#000000">disabled</text>
</g>
<!-- error&#45;&gt;disabled -->
<g id="edge7" class="edge">
<title>error&#45;&gt;disabled</title>
<path fill="none" stroke="#000000" d="M55.3943,-178.4225C62.72,-167.5731 72.9914,-153.6135 83.8417,-142.8 89.061,-137.5984 95.0717,-132.5453 101.0486,-127.9495"/>
<polygon fill="#000000" stroke="#000000" points="103.1413,-130.7551 109.1006,-121.9952 98.9792,-125.1269 103.1413,-130.7551"/>
<text text-anchor="middle" x="107.8242" y="-147" font-family="Times,serif" font-size="14.00" fill="#000000">disabled</text>
</g>
<!-- valid&#45;&gt;focused -->
<g id="edge9" class="edge">
<title>valid&#45;&gt;focused</title>
<path fill="none" stroke="#000000" d="M156.9182,-210.9561C166.7477,-221.5494 175.7407,-235.9172 168.4967,-248.4 163.5693,-256.8908 155.8038,-263.5483 147.3847,-268.7017"/>
<polygon fill="#000000" stroke="#000000" points="145.586,-265.6956 138.4661,-273.5414 148.9247,-271.848 145.586,-265.6956"/>
<text text-anchor="middle" x="185.6566" y="-235.8" font-family="Times,serif" font-size="14.00" fill="#000000">focus</text>
</g>
<!-- valid&#45;&gt;disabled -->
<g id="edge8" class="edge">
<title>valid&#45;&gt;disabled</title>
<path fill="none" stroke="#000000" d="M138.0463,-177.2006C137.0826,-164.975 135.7987,-148.6887 134.7086,-134.8599"/>
<polygon fill="#000000" stroke="#000000" points="138.1964,-134.566 133.9213,-124.872 131.2181,-135.1162 138.1964,-134.566"/>
<text text-anchor="middle" x="159.8242" y="-147" font-family="Times,serif" font-size="14.00" fill="#000000">disabled</text>
</g>
<!-- pristine -->
<g id="node4" class="node">
<title>pristine</title>
<ellipse fill="none" stroke="#000000" cx="121.4967" cy="-18" rx="40.0031" ry="18"/>
<text text-anchor="middle" x="121.4967" y="-13.8" font-family="Times,serif" font-size="14.00" fill="#000000">pristine</text>
</g>
<!-- pristine&#45;&gt;focused -->
<g id="edge1" class="edge">
<title>pristine&#45;&gt;focused</title>
<path fill="none" stroke="#000000" d="M158.9334,-24.8691C175.5205,-29.9717 193.5069,-38.7978 203.4967,-54 343.3585,-266.8384 217.7917,-229.4187 204.4967,-248.4 197.939,-257.7624 174.1813,-266.565 151.5841,-273.1223"/>
<polygon fill="#000000" stroke="#000000" points="150.3812,-269.8241 141.688,-275.8804 152.2605,-276.5671 150.3812,-269.8241"/>
<text text-anchor="middle" x="274.6566" y="-147" font-family="Times,serif" font-size="14.00" fill="#000000">focus</text>
</g>
<!-- pristine&#45;&gt;error -->
<g id="edge2" class="edge">
<title>pristine&#45;&gt;error</title>
<path fill="none" stroke="#000000" d="M91.02,-29.6743C79.8401,-35.4027 68.0787,-43.3971 60.4967,-54 36.6823,-87.3028 36.9709,-136.7214 40.1519,-167.5033"/>
<polygon fill="#000000" stroke="#000000" points="36.692,-168.0475 41.3629,-177.5571 43.6418,-167.2103 36.692,-168.0475"/>
<text text-anchor="middle" x="58.0949" y="-102.6" font-family="Times,serif" font-size="14.00" fill="#000000">error</text>
</g>
<!-- pristine&#45;&gt;disabled -->
<g id="edge3" class="edge">
<title>pristine&#45;&gt;disabled</title>
<path fill="none" stroke="#000000" d="M139.2051,-34.3645C144.157,-40.0454 148.8933,-46.8092 151.4967,-54 154.5478,-62.4274 152.9521,-71.6168 149.6554,-79.932"/>
<polygon fill="#000000" stroke="#000000" points="146.3795,-78.667 145.1805,-89.1938 152.6824,-81.7124 146.3795,-78.667"/>
<text text-anchor="middle" x="175.8242" y="-58.2" font-family="Times,serif" font-size="14.00" fill="#000000">disabled</text>
</g>
<!-- disabled&#45;&gt;pristine -->
<g id="edge10" class="edge">
<title>disabled&#45;&gt;pristine</title>
<path fill="none" stroke="#000000" d="M97.6656,-96.1387C85.6352,-90.5989 73.4482,-82.4695 66.5221,-70.8 58.5611,-57.3869 69.5847,-45.1323 83.7988,-35.8127"/>
<polygon fill="#000000" stroke="#000000" points="85.6176,-38.8032 92.4171,-30.6781 82.0348,-32.7896 85.6176,-38.8032"/>
<text text-anchor="middle" x="107.984" y="-58.2" font-family="Times,serif" font-size="14.00" fill="#000000">disabled=false</text>
</g>
</g>
</svg>
