<?xml version="1.0" encoding="UTF-8" standalone="no"?>
<!DOCTYPE svg PUBLIC "-//W3C//DTD SVG 1.1//EN"
 "http://www.w3.org/Graphics/SVG/1.1/DTD/svg11.dtd">
<!-- Generated by graphviz version 2.40.1 (20161225.0304)
 -->
<!-- Title: G Pages: 1 -->
<svg width="548pt" height="399pt"
 viewBox="0.00 0.00 548.32 399.20" xmlns="http://www.w3.org/2000/svg" xmlns:xlink="http://www.w3.org/1999/xlink">
<g id="graph0" class="graph" transform="scale(1 1) rotate(0) translate(4 395.2)">
<title>G</title>
<polygon fill="#ffffff" stroke="transparent" points="-4,4 -4,-395.2 544.3198,-395.2 544.3198,4 -4,4"/>
<!-- focused -->
<g id="node1" class="node">
<title>focused</title>
<ellipse fill="none" stroke="#0000ff" cx="310" cy="-373.2" rx="41.1316" ry="18"/>
<text text-anchor="middle" x="310" y="-369" font-family="Times,serif" font-size="14.00" fill="#000000">focused</text>
</g>
<!-- error -->
<g id="node2" class="node">
<title>error</title>
<ellipse fill="none" stroke="#ff0000" cx="257" cy="-284.4" rx="29.5936" ry="18"/>
<text text-anchor="middle" x="257" y="-280.2" font-family="Times,serif" font-size="14.00" fill="#000000">error</text>
</g>
<!-- focused&#45;&gt;error -->
<g id="edge5" class="edge">
<title>focused&#45;&gt;error</title>
<path fill="none" stroke="#000000" d="M304.0061,-354.9132C300.1748,-344.4176 294.6748,-331.2176 288,-320.4 285.377,-316.149 282.2601,-311.8945 279.0297,-307.8762"/>
<polygon fill="#000000" stroke="#000000" points="281.5066,-305.3861 272.3617,-300.0362 276.1744,-309.9213 281.5066,-305.3861"/>
<text text-anchor="middle" x="310.5982" y="-324.6" font-family="Times,serif" font-size="14.00" fill="#000000">error</text>
</g>
<!-- valid -->
<g id="node3" class="node">
<title>valid</title>
<ellipse fill="none" stroke="#00ff00" cx="203" cy="-18" rx="30.1958" ry="18"/>
<text text-anchor="middle" x="203" y="-13.8" font-family="Times,serif" font-size="14.00" fill="#000000">valid</text>
</g>
<!-- focused&#45;&gt;valid -->
<g id="edge6" class="edge">
<title>focused&#45;&gt;valid</title>
<path fill="none" stroke="#000000" d="M269.4729,-370.1258C185.4437,-362.6347 0,-339.8241 0,-284.4 0,-284.4 0,-284.4 0,-106.8 0,-71.3278 105.3571,-40.8779 164.2693,-26.6241"/>
<polygon fill="#000000" stroke="#000000" points="165.4233,-29.9476 174.3456,-24.2342 163.8078,-23.1365 165.4233,-29.9476"/>
<text text-anchor="middle" x="34.7053" y="-191.4" font-family="Times,serif" font-size="14.00" fill="#000000">error==false</text>
</g>
<!-- error&#45;&gt;focused -->
<g id="edge7" class="edge">
<title>error&#45;&gt;focused</title>
<path fill="none" stroke="#000000" d="M251.319,-302.0782C248.9214,-312.8606 247.8568,-326.5662 253.6802,-337.2 257.6778,-344.4997 263.8557,-350.5349 270.6787,-355.441"/>
<polygon fill="#000000" stroke="#000000" points="269.2299,-358.6665 279.5504,-361.0619 272.9763,-352.7534 269.2299,-358.6665"/>
<text text-anchor="middle" x="269.1599" y="-324.6" font-family="Times,serif" font-size="14.00" fill="#000000">focus</text>
</g>
<!-- error&#45;&gt;valid -->
<g id="edge8" class="edge">
<title>error&#45;&gt;valid</title>
<path fill="none" stroke="#000000" d="M229.4153,-277.3249C210.8004,-271.6175 186.3735,-262.2373 168,-248.4 127.9626,-218.2473 114.8248,-206.9831 98.484,-159.6 81.054,-109.0588 136.2755,-61.457 172.9783,-36.3871"/>
<polygon fill="#000000" stroke="#000000" points="175.0012,-39.2454 181.4015,-30.8022 171.1329,-33.4112 175.0012,-39.2454"/>
<text text-anchor="middle" x="129.758" y="-147" font-family="Times,serif" font-size="14.00" fill="#000000">error=false</text>
</g>
<!-- disabled -->
<g id="node5" class="node">
<title>disabled</title>
<ellipse fill="none" stroke="#c0c0c0" cx="257" cy="-195.6" rx="43.4377" ry="18"/>
<text text-anchor="middle" x="257" y="-191.4" font-family="Times,serif" font-size="14.00" fill="#000000">disabled</text>
</g>
<!-- error&#45;&gt;disabled -->
<g id="edge9" class="edge">
<title>error&#45;&gt;disabled</title>
<path fill="none" stroke="#000000" d="M257,-266.0006C257,-253.8949 257,-237.8076 257,-224.0674"/>
<polygon fill="#000000" stroke="#000000" points="260.5001,-223.672 257,-213.672 253.5001,-223.6721 260.5001,-223.672"/>
<text text-anchor="middle" x="280.3275" y="-235.8" font-family="Times,serif" font-size="14.00" fill="#000000">disabled</text>
</g>
<!-- valid&#45;&gt;focused -->
<g id="edge12" class="edge">
<title>valid&#45;&gt;focused</title>
<path fill="none" stroke="#000000" d="M233.2765,-20.2748C310.728,-26.9216 510,-49.5827 510,-106.8 510,-284.4 510,-284.4 510,-284.4 510,-317.7993 415.6533,-347.2094 356.5599,-362.3544"/>
<polygon fill="#000000" stroke="#000000" points="355.5278,-359.0049 346.6831,-364.8377 357.2347,-365.7937 355.5278,-359.0049"/>
<text text-anchor="middle" x="525.1599" y="-191.4" font-family="Times,serif" font-size="14.00" fill="#000000">focus</text>
</g>
<!-- valid&#45;&gt;error -->
<g id="edge11" class="edge">
<title>valid&#45;&gt;error</title>
<path fill="none" stroke="#000000" d="M199.5825,-36.1363C193.7076,-71.4104 184.2133,-151.2615 205,-213.6 210.9526,-231.4517 223.2476,-248.5427 234.388,-261.4591"/>
<polygon fill="#000000" stroke="#000000" points="231.8188,-263.8365 241.1083,-268.9313 237.0235,-259.1555 231.8188,-263.8365"/>
<text text-anchor="middle" x="208.5982" y="-147" font-family="Times,serif" font-size="14.00" fill="#000000">error</text>
</g>
<!-- valid&#45;&gt;disabled -->
<g id="edge10" class="edge">
<title>valid&#45;&gt;disabled</title>
<path fill="none" stroke="#000000" d="M208.1132,-35.9406C215.8369,-62.8761 231.0607,-115.3308 245,-159.6 245.8718,-162.3689 246.7991,-165.2511 247.7368,-168.1256"/>
<polygon fill="#000000" stroke="#000000" points="244.4378,-169.2973 250.9,-177.6931 251.0839,-167.0998 244.4378,-169.2973"/>
<text text-anchor="middle" x="257.3275" y="-102.6" font-family="Times,serif" font-size="14.00" fill="#000000">disabled</text>
</g>
<!-- untouched -->
<g id="node4" class="node">
<title>untouched</title>
<ellipse fill="none" stroke="#000000" cx="377" cy="-106.8" rx="51.03" ry="18"/>
<text text-anchor="middle" x="377" y="-102.6" font-family="Times,serif" font-size="14.00" fill="#000000">untouched</text>
</g>
<!-- untouched&#45;&gt;focused -->
<g id="edge1" class="edge">
<title>untouched&#45;&gt;focused</title>
<path fill="none" stroke="#000000" d="M407.8485,-121.316C416.5968,-126.8637 425.2858,-134.0165 431,-142.8 448.2207,-169.2709 447.4142,-183.7871 437,-213.6 417.1919,-270.3047 367.8759,-321.9347 336.8522,-350.3196"/>
<polygon fill="#000000" stroke="#000000" points="334.4886,-347.7379 329.388,-357.0242 339.1663,-352.9456 334.4886,-347.7379"/>
<text text-anchor="middle" x="443.1599" y="-235.8" font-family="Times,serif" font-size="14.00" fill="#000000">focus</text>
</g>
<!-- untouched&#45;&gt;error -->
<g id="edge3" class="edge">
<title>untouched&#45;&gt;error</title>
<path fill="none" stroke="#000000" d="M401.1943,-122.7678C413.0011,-132.692 423.4163,-146.0967 417,-159.6 391.4235,-213.4265 329.7843,-250.6104 290.9107,-269.6431"/>
<polygon fill="#000000" stroke="#000000" points="289.0834,-266.6363 281.5539,-274.0899 292.0882,-272.9586 289.0834,-266.6363"/>
<text text-anchor="middle" x="419.5982" y="-191.4" font-family="Times,serif" font-size="14.00" fill="#000000">error</text>
</g>
<!-- untouched&#45;&gt;valid -->
<g id="edge2" class="edge">
<title>untouched&#45;&gt;valid</title>
<path fill="none" stroke="#000000" d="M347.8763,-91.9369C316.7055,-76.029 267.394,-50.8632 235.117,-34.3908"/>
<polygon fill="#000000" stroke="#000000" points="236.5885,-31.2123 226.0904,-29.7841 233.4065,-37.4473 236.5885,-31.2123"/>
<text text-anchor="middle" x="344.6526" y="-58.2" font-family="Times,serif" font-size="14.00" fill="#000000">error===false</text>
</g>
<!-- untouched&#45;&gt;disabled -->
<g id="edge4" class="edge">
<title>untouched&#45;&gt;disabled</title>
<path fill="none" stroke="#000000" d="M373.3891,-124.8204C370.2687,-136.1491 364.6801,-150.3251 355,-159.6 341.8714,-172.179 323.9844,-180.4275 307.0838,-185.8079"/>
<polygon fill="#000000" stroke="#000000" points="305.9156,-182.5025 297.2905,-188.6554 307.87,-189.2242 305.9156,-182.5025"/>
<text text-anchor="middle" x="389.3275" y="-147" font-family="Times,serif" font-size="14.00" fill="#000000">disabled</text>
</g>
<!-- disabled&#45;&gt;untouched -->
<g id="edge13" class="edge">
<title>disabled&#45;&gt;untouched</title>
<path fill="none" stroke="#000000" d="M250.6918,-177.763C247.9661,-166.6505 246.8633,-152.6455 254.2362,-142.8 262.6323,-131.5883 292.5552,-122.6856 320.7548,-116.5382"/>
<polygon fill="#000000" stroke="#000000" points="321.5453,-119.9487 330.6193,-114.4795 320.1151,-113.0964 321.5453,-119.9487"/>
<text text-anchor="middle" x="303.3819" y="-147" font-family="Times,serif" font-size="14.00" fill="#000000">disabled===false</text>
</g>
</g>
</svg>
