<?xml version="1.0" encoding="UTF-8" standalone="no"?>
<!DOCTYPE svg PUBLIC "-//W3C//DTD SVG 1.1//EN"
 "http://www.w3.org/Graphics/SVG/1.1/DTD/svg11.dtd">
<!-- Generated by graphviz version 2.40.1 (20161225.0304)
 -->
<!-- Title: G Pages: 1 -->
<svg width="525pt" height="399pt"
 viewBox="0.00 0.00 525.32 399.20" xmlns="http://www.w3.org/2000/svg" xmlns:xlink="http://www.w3.org/1999/xlink">
<g id="graph0" class="graph" transform="scale(1 1) rotate(0) translate(4 395.2)">
<title>G</title>
<polygon fill="#ffffff" stroke="transparent" points="-4,4 -4,-395.2 521.3198,-395.2 521.3198,4 -4,4"/>
<!-- focused -->
<g id="node1" class="node">
<title>focused</title>
<ellipse fill="none" stroke="#0000ff" cx="303" cy="-373.2" rx="41.1316" ry="18"/>
<text text-anchor="middle" x="303" y="-369" font-family="Times,serif" font-size="14.00" fill="#000000">focused</text>
</g>
<!-- error -->
<g id="node2" class="node">
<title>error</title>
<ellipse fill="none" stroke="#ff0000" cx="250" cy="-284.4" rx="29.5936" ry="18"/>
<text text-anchor="middle" x="250" y="-280.2" font-family="Times,serif" font-size="14.00" fill="#000000">error</text>
</g>
<!-- focused&#45;&gt;error -->
<g id="edge5" class="edge">
<title>focused&#45;&gt;error</title>
<path fill="none" stroke="#000000" d="M297.0061,-354.9132C293.1748,-344.4176 287.6748,-331.2176 281,-320.4 278.377,-316.149 275.2601,-311.8945 272.0297,-307.8762"/>
<polygon fill="#000000" stroke="#000000" points="274.5066,-305.3861 265.3617,-300.0362 269.1744,-309.9213 274.5066,-305.3861"/>
<text text-anchor="middle" x="303.5982" y="-324.6" font-family="Times,serif" font-size="14.00" fill="#000000">error</text>
</g>
<!-- valid -->
<g id="node3" class="node">
<title>valid</title>
<ellipse fill="none" stroke="#00ff00" cx="196" cy="-18" rx="30.1958" ry="18"/>
<text text-anchor="middle" x="196" y="-13.8" font-family="Times,serif" font-size="14.00" fill="#000000">valid</text>
</g>
<!-- focused&#45;&gt;valid -->
<g id="edge6" class="edge">
<title>focused&#45;&gt;valid</title>
<path fill="none" stroke="#000000" d="M262.4505,-369.8581C179.8857,-361.9331 0,-338.463 0,-284.4 0,-284.4 0,-284.4 0,-106.8 0,-72.5278 100.6861,-41.7666 157.7285,-27.0893"/>
<polygon fill="#000000" stroke="#000000" points="158.661,-30.4638 167.4999,-24.6222 156.9474,-23.6767 158.661,-30.4638"/>
<text text-anchor="middle" x="30.758" y="-191.4" font-family="Times,serif" font-size="14.00" fill="#000000">error=false</text>
</g>
<!-- error&#45;&gt;focused -->
<g id="edge7" class="edge">
<title>error&#45;&gt;focused</title>
<path fill="none" stroke="#000000" d="M244.319,-302.0782C241.9214,-312.8606 240.8568,-326.5662 246.6802,-337.2 250.6778,-344.4997 256.8557,-350.5349 263.6787,-355.441"/>
<polygon fill="#000000" stroke="#000000" points="262.2299,-358.6665 272.5504,-361.0619 265.9763,-352.7534 262.2299,-358.6665"/>
<text text-anchor="middle" x="262.1599" y="-324.6" font-family="Times,serif" font-size="14.00" fill="#000000">focus</text>
</g>
<!-- error&#45;&gt;valid -->
<g id="edge8" class="edge">
<title>error&#45;&gt;valid</title>
<path fill="none" stroke="#000000" d="M222.4153,-277.3249C203.8004,-271.6175 179.3735,-262.2373 161,-248.4 120.9626,-218.2473 107.8248,-206.9831 91.484,-159.6 74.054,-109.0588 129.2755,-61.457 165.9783,-36.3871"/>
<polygon fill="#000000" stroke="#000000" points="168.0012,-39.2454 174.4015,-30.8022 164.1329,-33.4112 168.0012,-39.2454"/>
<text text-anchor="middle" x="122.758" y="-147" font-family="Times,serif" font-size="14.00" fill="#000000">error=false</text>
</g>
<!-- disabled -->
<g id="node5" class="node">
<title>disabled</title>
<ellipse fill="none" stroke="#c0c0c0" cx="250" cy="-195.6" rx="43.4377" ry="18"/>
<text text-anchor="middle" x="250" y="-191.4" font-family="Times,serif" font-size="14.00" fill="#000000">disabled</text>
</g>
<!-- error&#45;&gt;disabled -->
<g id="edge9" class="edge">
<title>error&#45;&gt;disabled</title>
<path fill="none" stroke="#000000" d="M250,-266.0006C250,-253.8949 250,-237.8076 250,-224.0674"/>
<polygon fill="#000000" stroke="#000000" points="253.5001,-223.672 250,-213.672 246.5001,-223.6721 253.5001,-223.672"/>
<text text-anchor="middle" x="273.3275" y="-235.8" font-family="Times,serif" font-size="14.00" fill="#000000">disabled</text>
</g>
<!-- valid&#45;&gt;focused -->
<g id="edge12" class="edge">
<title>valid&#45;&gt;focused</title>
<path fill="none" stroke="#000000" d="M226.0461,-20.7224C300.3961,-28.285 487,-52.6588 487,-106.8 487,-284.4 487,-284.4 487,-284.4 487,-315.1203 402.7582,-344.9236 348.2766,-360.9859"/>
<polygon fill="#000000" stroke="#000000" points="347.1096,-357.6799 338.4771,-363.8223 349.0559,-364.4039 347.1096,-357.6799"/>
<text text-anchor="middle" x="502.1599" y="-191.4" font-family="Times,serif" font-size="14.00" fill="#000000">focus</text>
</g>
<!-- valid&#45;&gt;error -->
<g id="edge11" class="edge">
<title>valid&#45;&gt;error</title>
<path fill="none" stroke="#000000" d="M192.5825,-36.1363C186.7076,-71.4104 177.2133,-151.2615 198,-213.6 203.9526,-231.4517 216.2476,-248.5427 227.388,-261.4591"/>
<polygon fill="#000000" stroke="#000000" points="224.8188,-263.8365 234.1083,-268.9313 230.0235,-259.1555 224.8188,-263.8365"/>
<text text-anchor="middle" x="201.5982" y="-147" font-family="Times,serif" font-size="14.00" fill="#000000">error</text>
</g>
<!-- valid&#45;&gt;disabled -->
<g id="edge10" class="edge">
<title>valid&#45;&gt;disabled</title>
<path fill="none" stroke="#000000" d="M201.1132,-35.9406C208.8369,-62.8761 224.0607,-115.3308 238,-159.6 238.8718,-162.3689 239.7991,-165.2511 240.7368,-168.1256"/>
<polygon fill="#000000" stroke="#000000" points="237.4378,-169.2973 243.9,-177.6931 244.0839,-167.0998 237.4378,-169.2973"/>
<text text-anchor="middle" x="250.3275" y="-102.6" font-family="Times,serif" font-size="14.00" fill="#000000">disabled</text>
</g>
<!-- pristine -->
<g id="node4" class="node">
<title>pristine</title>
<ellipse fill="none" stroke="#000000" cx="354" cy="-106.8" rx="40.0031" ry="18"/>
<text text-anchor="middle" x="354" y="-102.6" font-family="Times,serif" font-size="14.00" fill="#000000">pristine</text>
</g>
<!-- pristine&#45;&gt;focused -->
<g id="edge1" class="edge">
<title>pristine&#45;&gt;focused</title>
<path fill="none" stroke="#000000" d="M382.6892,-119.3813C392.5504,-125.1203 402.6869,-132.8846 409,-142.8 425.9421,-169.4093 423.438,-183.4999 414,-213.6 397.0165,-267.7644 354.4382,-319.6462 327.2264,-348.8659"/>
<polygon fill="#000000" stroke="#000000" points="324.3369,-346.8261 319.9927,-356.4894 329.4148,-351.6443 324.3369,-346.8261"/>
<text text-anchor="middle" x="422.1599" y="-235.8" font-family="Times,serif" font-size="14.00" fill="#000000">focus</text>
</g>
<!-- pristine&#45;&gt;error -->
<g id="edge3" class="edge">
<title>pristine&#45;&gt;error</title>
<path fill="none" stroke="#000000" d="M377.0676,-121.8079C383.8138,-127.4959 390.351,-134.6067 394,-142.8 397.0377,-149.6208 396.9368,-152.7352 394,-159.6 372.2604,-210.4159 317.565,-248.0587 282.188,-268.0794"/>
<polygon fill="#000000" stroke="#000000" points="280.279,-265.1348 273.2041,-273.0213 283.6529,-271.2681 280.279,-265.1348"/>
<text text-anchor="middle" x="396.5982" y="-191.4" font-family="Times,serif" font-size="14.00" fill="#000000">error</text>
</g>
<!-- pristine&#45;&gt;valid -->
<g id="edge2" class="edge">
<title>pristine&#45;&gt;valid</title>
<path fill="none" stroke="#000000" d="M328.9644,-92.7294C301.2855,-77.1731 256.6768,-52.1019 226.8582,-35.3431"/>
<polygon fill="#000000" stroke="#000000" points="228.5465,-32.2771 218.1141,-30.4287 225.1168,-38.3793 228.5465,-32.2771"/>
<text text-anchor="middle" x="320.758" y="-58.2" font-family="Times,serif" font-size="14.00" fill="#000000">error=false</text>
</g>
<!-- pristine&#45;&gt;disabled -->
<g id="edge4" class="edge">
<title>pristine&#45;&gt;disabled</title>
<path fill="none" stroke="#000000" d="M350.123,-124.8738C346.9109,-136.0808 341.3201,-150.1021 332,-159.6 322.2811,-169.5043 309.3722,-176.8783 296.6789,-182.2824"/>
<polygon fill="#000000" stroke="#000000" points="295.1088,-179.1383 287.0706,-186.0403 297.6585,-185.6574 295.1088,-179.1383"/>
<text text-anchor="middle" x="366.3275" y="-147" font-family="Times,serif" font-size="14.00" fill="#000000">disabled</text>
</g>
<!-- disabled&#45;&gt;pristine -->
<g id="edge13" class="edge">
<title>disabled&#45;&gt;pristine</title>
<path fill="none" stroke="#000000" d="M243.6047,-177.3643C240.9652,-166.3721 239.9533,-152.6418 247.0254,-142.8 254.4955,-132.4043 282.2057,-123.2426 307.5499,-116.7632"/>
<polygon fill="#000000" stroke="#000000" points="308.5882,-120.1123 317.4648,-114.3281 306.9186,-113.3143 308.5882,-120.1123"/>
<text text-anchor="middle" x="288.4873" y="-147" font-family="Times,serif" font-size="14.00" fill="#000000">disabled=false</text>
</g>
</g>
</svg>
